<?xml version="1.0" encoding="iso-8859-1"?>
<!-- Uploaded to: SVG Repo, www.svgrepo.com, Generator: SVG Repo Mixer Tools -->
<svg height="800px" width="800px" version="1.1" id="Layer_1" xmlns="http://www.w3.org/2000/svg" xmlns:xlink="http://www.w3.org/1999/xlink" 
	 viewBox="0 0 512 512" xml:space="preserve">
<path style="fill:#FFFFFF;" d="M66.496,488.204C34.24,488.204,8,461.964,8,429.716V193.628c0-32.248,26.24-58.496,58.496-58.496
	h379.016c32.248,0,58.496,26.24,58.496,58.496v236.088c0,32.248-26.24,58.496-58.496,58.496H66.496V488.204z"/>
<path style="fill:#E21B1B;" d="M445.512,143.14c27.84,0,50.488,22.648,50.488,50.488v236.088c0,27.84-22.648,50.488-50.488,50.488
	H66.488c-27.84,0-50.488-22.648-50.488-50.488V193.628c0-27.84,22.648-50.488,50.488-50.488L445.512,143.14 M445.512,127.14H66.488
	C29.92,127.14,0,157.06,0,193.628v236.088c0,36.568,29.92,66.488,66.488,66.488h379.024c36.568,0,66.488-29.92,66.488-66.488
	V193.628C512,157.06,482.08,127.14,445.512,127.14L445.512,127.14z"/>
<path d="M402.152,202.204h-32v-117c0-20.624-16.768-37.408-37.392-37.408H179.248c-20.624,0-37.392,16.784-37.392,37.408v117h-32
	v-117c0-38.264,31.128-69.408,69.392-69.408H332.76c38.264,0,69.392,31.144,69.392,69.408V202.204z"/>
<g>
	<path style="fill:#E21B1B;" d="M130.88,386.356c7.376,1.016,18.16,0.856,28.088-2.624c10.712-3.752,14.824-10.16,12.464-16.896
		c-2.248-6.432-8.432-8.392-22.376-8.48c-19.216,0.016-33.712-5.552-38.968-20.552c-6.16-17.608,3.8-36.2,28.144-44.712
		c11.624-4.072,21.056-4.608,28.144-4l1.392,20.64c-4.84-0.536-13.2-0.896-23.304,2.64s-13.376,9.856-11.504,15.2
		c2.288,6.592,9.144,7.448,24.216,7.856c20.552,0.336,32.448,6.84,37.536,21.376c6.032,17.288-2.144,36.64-30.432,46.552
		c-11.784,4.128-24.48,5.104-31.432,3.944L130.88,386.356z"/>
	<path style="fill:#E21B1B;" d="M264.128,366.676l-3.984-7.016l-0.464,0.16c-2.8,7.68-9.32,13.592-18.2,16.68
		c-15.16,5.304-28.056-2.552-32.232-14.48c-6.784-19.448,7.392-34.896,33.928-43.984l-0.376-1.088c-1.392-3.968-5.52-8.872-17-4.856
		c-7.664,2.68-14.856,8.104-18.68,12.896l-9.52-13.504c4.2-4.736,13.16-11.984,26.768-16.752
		c24.968-8.736,38.056,3.16,44.216,20.768l9.104,26.016c2.496,7.176,5.216,13.968,7.432,17.824L264.128,366.676z M249.024,332.3
		c-12.288,4.128-20.768,10.336-17.608,19.376c2.088,5.968,7.088,7.504,12.304,5.68c5.8-2.032,9.216-7.52,9.072-12.8
		c-0.104-1.336-0.448-2.768-0.928-4.144L249.024,332.3z"/>
	<path style="fill:#E21B1B;" d="M264.4,244.66l23.248-8.144l38.016,108.624l-23.248,8.144L264.4,244.66z"/>
	<path style="fill:#E21B1B;" d="M351.92,302.3c4.128,9.392,15.232,10.64,26.088,6.84c7.968-2.784,14-6.104,19.568-10.304
		l8.592,14.696c-6.592,5.752-15.376,10.552-25.48,14.088c-25.392,8.872-45.072-0.736-53.248-24.144
		c-6.64-18.968-2.216-44.056,23.8-53.144c24.16-8.464,39.944,7.144,46.432,25.64c1.392,3.984,2.16,7.664,2.448,9.464L351.92,302.3z
		 M373.72,276.82c-1.968-5.68-7.736-14.304-18.464-10.552c-9.784,3.432-10.664,13.696-9.072,20.176L373.72,276.82z"/>
</g>
</svg>